<svg xmlns="http://www.w3.org/2000/svg" width="242" height="69" fill="none" viewBox="0 0 242 69">
  <path fill="#00314C" d="M24.367 30.805c2.11.093 3.852-.453 5.227-1.64.281-.267.523-.313.726-.142.22.157.227.344.024.563-1.75 1.703-3.586 2.516-5.508 2.437-2.438-.046-4.43-.867-5.977-2.46-1.547-1.61-2.328-3.727-2.343-6.352-.141-2.703.898-5.07 3.117-7.102 2.219-2.03 4.937-3.047 8.156-3.047 3.563 0 6.461 1.188 8.695 3.563.22.203.414.188.586-.047 1.532-2.406 2.79-3.625 3.774-3.656 1-.047 2.328 1.07 3.984 3.351.172.235.367.258.586.07.313-.312.555-.546.727-.702 2.265-2.063 4.945-2.946 8.039-2.649 3.11.281 5.367 1.797 6.773 4.547.422.875.742 1.719.961 2.531.234.797.742 1.43 1.523 1.899.438.25.657.484.657.703 0 .219-.14.36-.422.422-1.047.234-2.07.68-3.07 1.336-1.063 1.125-1.399 2.187-1.008 3.187.39.985 1.414 2.063 3.07 3.235 2.11 1.546 3.047 3.43 2.813 5.648-.22 2.219-1.5 4.453-3.844 6.703-2.969 2.875-5.742 4.32-8.32 4.336-2.579.016-4.899-1.055-6.961-3.21-1.032-1.063-2.164-1.173-3.399-.329-3.375 2.64-6.18 3.734-8.414 3.281-2.219-.437-4.07-1.687-5.555-3.75-2.406-3.312-4.984-4.117-7.734-2.414-.36.25-.633.274-.82.07-.172-.218-.125-.445.14-.68 2.188-1.905 4.063-3.093 5.625-3.562 1.578-.468 2.977-.484 4.196-.047.187.063.328.032.422-.093a16.441 16.441 0 0 0 2.882-4.64 12.343 12.343 0 0 0 .961-5.485c-.11-2.016-1.008-4.063-2.695-6.14-1.688-2.095-3.945-3.024-6.773-2.79-1.688.156-3.243.797-4.665 1.922-1.406 1.125-2.156 2.601-2.25 4.43-.015 1.828.516 3.382 1.594 4.664 1.078 1.28 2.578 1.96 4.5 2.039Zm34.008-6.328c-1-.735-1.75-1.57-2.25-2.508-.484-.938-.96-1.89-1.43-2.86-1-1.984-2.28-3.25-3.843-3.797-1.563-.546-2.86-.257-3.891.868-1.047 1.14-1.555 2.445-1.523 3.914.046 1.453.843 3.234 2.39 5.343 1.734 2.438 2.688 4.649 2.86 6.633.171 1.97-.47 3.985-1.922 6.047-.11.14-.149.266-.118.375.032.11.149.18.352.211.672.172 1.46.649 2.367 1.43 2.406 2.64 4.36 4.015 5.86 4.125 1.515.094 2.718-.422 3.609-1.547.656-.828.914-1.797.773-2.906-.125-1.11-1.453-2.688-3.984-4.735-3.469-2.75-3.945-5.406-1.43-7.968.766-.766 1.5-1.43 2.203-1.993a.425.425 0 0 0 .141-.304.421.421 0 0 0-.164-.328Zm-20.742-6.375c1.531 2.453 1.984 5.296 1.36 8.53-.376 1.938-1.298 3.805-2.766 5.602-1.47 1.797-2.977 3.391-4.524 4.782-.203.234-.187.437.047.609.719.484 1.547 1.242 2.484 2.273 1.547 1.782 3.063 2.954 4.547 3.516 1.5.563 3.258-.023 5.274-1.758 1.922-1.64 2.64-3.453 2.156-5.437-.484-1.985-1.445-4.016-2.883-6.094-1.61-2.328-2.266-4.516-1.969-6.563.297-2.046 1.203-3.984 2.72-5.812.14-.14.14-.305 0-.492-1.22-1.328-2.321-1.969-3.306-1.922-.968.047-2.015.828-3.14 2.344a.352.352 0 0 0 0 .422Zm33.328 23.39-.164-12.844c0-.296-.047-.539-.14-.726-.376-.61-.696-.758-.962-.445l-.937.96c-.25.282-.492.313-.727.094-.219-.218-.18-.523.117-.914A29.433 29.433 0 0 0 70 25.04c.547-.86 1.11-1.71 1.688-2.555.25-.297.539-.289.867.024.656.797 1.297 1.5 1.922 2.11.625.593 1.515 1.226 2.671 1.898.329.125.47.273.422.445-.03.172-.132.266-.304.281-.407.156-.766.43-1.079.82-.312.375-.468 1.008-.468 1.899v9.914c0 1.594.297 2.57.89 2.93.688.406 1.25.234 1.688-.516.156-.297.344-.36.562-.187.235.156.235.421 0 .796a36.014 36.014 0 0 0-1.312 2.227c-.406.734-.82 1.469-1.242 2.203-.297.438-.664.531-1.102.281-1.406-.672-2.469-1.492-3.187-2.46-.704-.97-1.055-2.188-1.055-3.657Zm3.398-27.82c1.735 0 2.524.836 2.368 2.508-.094.843-.625 1.695-1.594 2.554-.953.844-1.711 1.258-2.274 1.243-.562 0-.992-.446-1.289-1.336-.297-.891-.414-1.711-.351-2.461.047-.72.39-1.313 1.031-1.782.656-.484 1.36-.726 2.11-.726Zm18.375 30.023a925.76 925.76 0 0 0-2.625 2.016c-.953.719-1.836 1.383-2.648 1.992-.281.219-.508.313-.68.281-.156-.03-.219-.172-.187-.422 0-.328-.485-.953-1.453-1.874-2.547-2.391-3.774-5.5-3.68-9.329.094-3.28 1.617-6.054 4.57-8.32a26.45 26.45 0 0 0 2.531-2.18c.797-.765 1.5-1.695 2.11-2.789.25-.484.594-.5 1.031-.047 2.375 2.688 4.75 4.274 7.125 4.758.75.14.828.438.234.89-.734.532-1.132 1.188-1.195 1.97v.047l.07 10.71c0 .72.258 1.211.774 1.477.531.266 1.102.063 1.711-.61.234-.265.453-.328.656-.187.219.125.227.36.024.703a321.22 321.22 0 0 0-1.641 2.485 16.217 16.217 0 0 0-1.313 2.53l-.023.024c-.219.36-.484.36-.797 0a1.252 1.252 0 0 0-.61-.375c-1.78-.39-2.906-1.57-3.374-3.539-.031-.093-.11-.187-.235-.281a.603.603 0 0 0-.375.07Zm.258-13.804c-.969-.266-2.101-1.016-3.398-2.25-.625-.75-1.125-.82-1.5-.211-1.656 2.468-2.305 5.195-1.946 8.18.5 4.265 2 6.898 4.5 7.898.016 0 .032.008.047.023.64.203 1.414-.18 2.32-1.148a.475.475 0 0 0 .094-.258 18.418 18.418 0 0 1-.023-1.102l.21-10.757c0-.188-.1-.313-.304-.375Zm15.399-15.54c-1.235.344-1.836 1.07-1.805 2.18.016.703.414 1.36 1.195 1.969.797.594 1.727.992 2.789 1.195.016 0 .032.008.047.024 3.281 1.218 6.133 2.812 8.555 4.781 2.437 1.969 3.82 4.828 4.148 8.578v.07c-.328 2.813-1.008 5.157-2.039 7.032-1.031 1.875-2.25 3.304-3.656 4.289l-.023.047a11.003 11.003 0 0 1-2.321 1.5c-.89.437-1.679.89-2.367 1.359-.437.297-.719.297-.844 0-.875-2.078-3.289-3.664-7.242-4.758-.234-.047-.359-.164-.375-.351-.015-.188.07-.32.258-.399.984-.375 1.477-1.414 1.477-3.117l-.047-9.75c0-.547.25-.805.75-.773 1.562.203 3.125-.329 4.687-1.594.094-.063.141-.18.141-.352a.42.42 0 0 0-.235-.281 83.21 83.21 0 0 0-1.781-.727 29.109 29.109 0 0 1-1.734-.796c-1.453-.657-2.531-1.508-3.235-2.555-.687-1.047-1.093-2.086-1.218-3.117v-.117c.39-2.985 1.89-4.649 4.5-4.993.406-.062.625.016.656.235.047.218-.047.36-.281.422Zm4.57 12.305a.373.373 0 0 0-.399.047l-1.101.867c-.313.235-.469.516-.469.844l.094 11.578c0 .235.094.399.281.492l5.063 2.977c.406.25.781.156 1.125-.281 1.406-1.985 1.945-4.617 1.617-7.899-.313-3.297-1.664-5.789-4.055-7.476-.437-.297-1.156-.68-2.156-1.149Zm20.273 20.766c-.234.39-.523.39-.867 0-1.719-2.14-4.328-3.75-7.828-4.828-.281-.078-.414-.203-.398-.375 0-.172.086-.297.257-.375 1-.344 1.5-1.383 1.5-3.117l-.07-11.954c0-.171-.016-.304-.047-.398a.344.344 0 0 1 .024-.281c.062-.094.172-.149.328-.164 4.156-.344 7.851-1.477 11.086-3.399.14-.078.265-.101.375-.07.125.031.195.14.211.328.265 1.688 1.093 3.344 2.484 4.969.766.937 1.399 2.219 1.899 3.844.515 1.625.718 2.976.609 4.054a7.85 7.85 0 0 1-1.242 3.422 17.74 17.74 0 0 1-2.297 2.766c-1.016 1-2.11 1.843-3.281 2.531-1.172.688-2.086 1.703-2.743 3.047Zm-2.554-20.953.093 13.5c0 .234.094.398.282.492l4.148 2.578c.406.266.781.188 1.125-.234 1.484-1.594 2.156-3.508 2.016-5.742-.032-1.391-.305-2.633-.821-3.727a11.599 11.599 0 0 0-1.875-2.906c-1.218-1.235-2.148-2.766-2.789-4.594-.031-.078-.101-.14-.211-.188-.109-.062-.21-.07-.304-.023-.469.172-.938.32-1.406.445-.172.063-.258.196-.258.399Zm87.562 16.804c1.219-.78 2.242-1.812 3.07-3.093.25-.375.477-.375.68 0 .735 1.39 1.758 2.422 3.07 3.093.438.22.438.438 0 .657a6.51 6.51 0 0 0-3.07 3.07c-.234.453-.461.453-.68 0-.671-1.25-1.695-2.273-3.07-3.07-.375-.188-.375-.407 0-.657Z"/>
  <path fill="#660001" d="M157.234 34.04c.032-.876-.179-1.415-.632-1.618-.438-.219-1.375-.164-2.813.164-2.219.531-4.203.039-5.953-1.477-1.75-1.515-2.625-3.773-2.625-6.773.016-2.984 1.101-5.563 3.258-7.734 2.156-2.172 4.734-3.258 7.734-3.258 1.359 0 2.836.336 4.43 1.008a10.742 10.742 0 0 1 4.078 3c.094.125.195.18.305.164.109-.016.203-.086.281-.211a9.549 9.549 0 0 1 2.648-2.836c1.094-.766 2.539-1.125 4.336-1.078 2.328.109 4.414 1.546 6.258 4.312.094.14.211.211.352.211.14 0 .25-.078.328-.234.656-1.22 1.484-2.22 2.484-3 1-.782 2.25-1.172 3.75-1.172 1.922.031 3.508.617 4.758 1.758 1.25 1.14 2.156 3.054 2.719 5.742.343 1.86 1.062 2.844 2.156 2.953.312.016.476.148.492.398.031.25-.156.438-.562.563-3.032 1.031-5.118 2.687-6.258 4.969-1.141 2.265-1.094 5.156.14 8.672.547 1.593 1.329 2.718 2.344 3.374 1.031.641 2.156.586 3.375-.164.453-.265.789-.257 1.008.024.234.266.195.531-.117.797a543.284 543.284 0 0 0-3.164 2.531 612.405 612.405 0 0 1-3.117 2.484c-.172.125-.336.125-.493 0-3.328-2.672-5.336-5.64-6.023-8.906-.672-3.266 1.484-7.133 6.469-11.601.109-.11.156-.22.14-.329 0-.109-.07-.203-.211-.28-1.093-.735-1.898-2.618-2.414-5.65-.547-3-1.765-4.515-3.656-4.546-1.344-.031-2.484.953-3.422 2.953a.313.313 0 0 0 0 .328c.61 1.297 1.047 2.742 1.313 4.336.281 1.594.297 3.281.047 5.063-.625 4.312-1.555 7.57-2.789 9.773-1.219 2.188-2.672 4.375-4.36 6.563-2.234 2.796-4.344 3.101-6.328.914-.562-.625-1.156-1.032-1.781-1.22-.61-.187-1.313.032-2.11.657-.297.25-.554.281-.773.094-.203-.203-.188-.453.047-.75 2-2.781 3.586-4.367 4.758-4.758 1.187-.39 2.343-.063 3.468.984.922.86 1.766 1.32 2.532 1.383.781.063 1.39-.515 1.828-1.734.843-2.344 1.14-5.617.89-9.82-.234-4.22-1.086-7.454-2.554-9.704-1.453-2.25-2.844-3.57-4.172-3.96-1.313-.407-2.508-.063-3.586 1.03-.156.157-.164.321-.024.493 1.86 2.578 2.86 5.562 3 8.953a17.596 17.596 0 0 1-1.617 8.016c-1.172 2.547-2.679 4.992-4.523 7.336-2.016 2.562-3.93 4.03-5.742 4.406-1.797.375-3.446-.54-4.946-2.742-1.312-1.97-2.648-2.211-4.007-.727-.329.281-.626.29-.891.023-.25-.265-.211-.57.117-.914 4.266-4.343 7.617-4.914 10.055-1.71.39.53.758 1.023 1.101 1.476.36.453.891.664 1.594.633.906-.031 1.859-1.024 2.859-2.977 1-1.953 1.5-4.414 1.5-7.383-.031-3.89-1.046-7.296-3.046-10.218-2-2.938-4.289-4.547-6.868-4.828-2.578-.266-4.609.218-6.093 1.453-1.485 1.234-2.204 2.695-2.157 4.383.047 1.718.5 3.093 1.36 4.125.875 1.03 2.484 1.242 4.828.632 4.515-1.156 6.476.508 5.883 4.993-.063.468-.282.71-.657.726-.359 0-.539-.18-.539-.539Zm48.985 13.382c-.235.39-.524.39-.867 0-1.719-2.14-4.329-3.75-7.829-4.828-.281-.078-.414-.203-.398-.375 0-.172.086-.297.258-.375 1-.344 1.5-1.383 1.5-3.117l-.071-11.954c0-.171-.015-.304-.046-.398a.34.34 0 0 1 .023-.281c.063-.094.172-.149.328-.164 4.156-.344 7.852-1.477 11.086-3.399.141-.078.266-.101.375-.07.125.031.195.14.211.328.266 1.688 1.094 3.344 2.484 4.969.766.937 1.399 2.219 1.899 3.844.516 1.625.719 2.976.609 4.054a7.85 7.85 0 0 1-1.242 3.422c-.672 1-1.437 1.922-2.297 2.766a16.734 16.734 0 0 1-3.281 2.531c-1.172.688-2.086 1.703-2.742 3.047Zm-2.555-20.953.094 13.5c0 .234.094.398.281.492l4.149 2.578c.406.266.781.188 1.124-.234 1.485-1.594 2.157-3.508 2.016-5.742-.031-1.391-.305-2.633-.82-3.727a11.599 11.599 0 0 0-1.875-2.906c-1.219-1.235-2.149-2.766-2.789-4.594-.032-.078-.102-.14-.211-.188-.11-.062-.211-.07-.305-.023-.469.172-.937.32-1.406.445-.172.063-.258.196-.258.399Z"/>
</svg>
