<svg height="328.096112" viewBox="0 0 340.4381 365.66226" width="304.788738" xmlns="http://www.w3.org/2000/svg" xmlns:xlink="http://www.w3.org/1999/xlink"><clipPath id="a"><path d="m0 595.28h841.89v-595.28h-841.89z"/></clipPath><g clip-path="url(#a)" fill-rule="evenodd" transform="matrix(1.3333333 0 0 -1.3333333 -390.63172 622.27425)"><g fill="#28367a"><path d="m0 0-33.494 24.811c-35.334 29.039-61.341 26.289-82.122 5.705-47.303 9.076-61.609-8.167-53.341-43.418 1.487 20.223 7.525 34.034 23.57 33.744 8.268.081 16.788-2.318 24.809-2.731 4.054-.744 8.107-.828 12.159-.247 11.724 18.753 30.617 23.339 59.543 6.201z" transform="translate(499.9451 336.5078)"/><path d="m0 0c-9.014 8.518-19.712 13.149-30.021 11.66-6.285-11.909 6.534-18.11 15.383-11.909 2.233 2.731 7.114 2.814 14.638.249" transform="translate(439.4096 349.4088)"/><path d="m0 0c32.131 16.381 76.684-.406 90.366-48.628h-24.327c-3.039 40.815-25.289 54.128-66.039 48.628" transform="translate(341.1613 320.1334)"/><path d="m0 0-8.893-2.352-4.508 3.75c-1.588 1.142-3.175 2.188-4.87 3.192-1.746.932-3.472 1.753-5.313 2.52-1.925.703-3.816 1.291-5.816 1.812-2.129.452-4.217.793-6.395 1.055l-4.524.252-5.643-.464-2.575-.411-2.378-.521-2.177-.635-1.984-.733-1.791-.832-1.599-.921-1.417-1.011-1.25-1.099-1.091-1.191-.945-1.285-.804-1.394-.67-1.515-.535-1.653-.338-1.532c.021-1.071.152-1.955.418-3.001l.872-1.894 1.42-1.816 2.068-1.768 2.782-1.686 3.521-1.554 4.252-1.383 2.342-.603c4.803-.89 9.546-1.897 14.283-3.071 2.56-.68 5.091-1.403 7.614-2.18 3.748-1.239 7.349-2.602 10.941-4.224 1.886-.923 3.689-1.876 5.502-2.922l3.221-2.139c1.46-1.121 2.799-2.255 4.136-3.52l2.266-2.578 1.851-2.77 1.397-2.96.908-3.127.404-3.258-.176-5.493-.555-3.772-.934-3.598-1.325-3.404-1.726-3.194-2.125-2.95-2.519-2.69-2.899-2.405-3.258-2.118-3.623-1.829-3.97-1.542-4.322-1.255-4.673-.972-5.033-.692-5.399-.414-5.73-.13h-42.164v37.96h10.416v-8.643l.277-1.752.447-1.737.589-1.603.728-1.48.874-1.372 1.018-1.272 1.185-1.185 1.349-1.102 1.535-1.023 1.724-.933 1.921-.846 2.119-.748 2.326-.652 5.251-.978 2.861-.313 4.254-.125 4.092.026 3.845.173 3.597.32 3.348.452 3.092.587 2.84.711 2.586.829 2.333.933 2.078 1.033 1.826 1.119 1.588 1.204 1.357 1.275 1.135 1.345.934 1.414.609 1.239c.214 1.201.308 2.308.324 3.515l-.275 2.198-.661 1.939-1.064 1.777-1.527 1.675-2.058 1.582c-1.349.813-2.667 1.48-4.117 2.117-4.731 1.578-9.512 2.981-14.332 4.325-8.46 2.33-17.018 4.475-25.245 7.574-5.497 2.214-11.615 4.993-14.49 10.507l-1.846 2.397-1.785 2.933-1.393 3.053-.982 3.159-.537 3.228-.081 3.269.402 3.272.887 3.234 1.382 3.154 1.859 3.037 2.335 2.897 2.803 2.744 3.274 2.572 3.737 2.39 4.215 2.202 4.863 2.071 5.639 1.203 5.414.715c2.724.208 5.403.326 8.122.36 2.721-.047 5.403-.171 8.109-.368 2.714-.258 5.397-.572 8.088-.943 3.245-.502 6.454-1.077 9.671-1.671z" transform="translate(543.6204 280.339)"/><path d="m0 0 4.695-.403 8.655-1.366 7.645-2.168 3.431-1.41 3.155-1.644 2.871-1.895 2.562-2.158 2.229-2.432 1.858-2.691 1.468-2.943 1.052-3.17.629-3.373.214-3.613-.328-3.847-.743-3.565-1.164-3.337-1.584-3.089-1.994-2.816-2.384-2.525-2.738-2.222-3.073-1.919-3.379-1.637-3.684-1.361-3.971-1.102-4.261-.855-4.545-.616-4.834-.389-5.115-.169-8.884.082v9.049l7.293.748 3.587.61 3.204.782 2.835.937 2.476 1.066 2.132 1.177 1.81 1.261 1.508 1.335 1.237 1.387.98 1.431.753 1.475.542 1.52.348 1.558.153 1.599-.03 1.637-.218 1.664-.39 1.671-.573 1.67-.741 1.649-.905 1.615-1.058 1.556-1.205 1.488-1.339 1.396-1.462 1.295-1.571 1.168-1.674 1.038-1.76.89-1.843.729-1.907.554-1.972.373-2.024.18-17.418-.033v-25.092h.044l.056-53.292c.478-8.189 4.607-7.727 10.867-7.74v-9.644h-45.608v9.644c6.683.017 10.079.155 10.403 8.462v52.57h.057l-.007 6.809h-.044v12.567c-.299 7.664-3.224 8.261-9.667 8.279v9.829h.053 50.336s2.736-.043 4.959-.234" transform="translate(349.0638 300.6714)"/></g><path d="m0 0v-9.645h-45.594-.028v9.645c6.552.043 10.069.028 10.424 8.291v52.741h24.283v-40.001h.056v-12.569c.337-8.643 4.092-8.448 10.859-8.462" fill="#e6173c" transform="translate(442.2486 202.3898)"/><path d="m0 0c-2.842 5.928-6.392 11.408-10.403 16.614l-8.602 11.02c.716-8.49 1.566-16.933 1.823-25.443.354-16.728-2.094-33.767-6.749-49.76 22.895 6.428 51.034-13.832 64.265-28.161 9.152 13.918 19.477 25.814 32.437 36.399 6.644 5.326 13.62 10.154 20.546 15.118l-13.966-.602c-6.565-.323-13.036-1.18-19.393-2.862-2.397 4.358-8.354 7.183-13.326 6.688-.012.176-.023.36-.033.548 1.045 7.261-1.916 23.747-6.335 29.739-.017.028-.011.045-.062.025-7.422-.858-21.566-10-26.111-15.713-1.509 4.343-9.648 7.303-14.091 6.39m40.935-30.692c6.43 6.986 13.428 6.184 14.822-4.458 5.895 1.866 11.568 3.249 17.74 3.935-13.488-10.209-25.598-21.834-34.94-36.005-10.783 12.445-39.069 28.724-54.769 25.28 4.724 16.304 5.719 33.06 4.736 49.951 3.481-5.145 6.108-10.361 8.511-16.056 9.006 5.844 14.157 1.036 13.009-8.389 8.308 7.73 16.739 16.177 27.701 20.021 4.858-11.109 3.697-22.692 3.19-34.279" fill="#28367a" transform="translate(440.5953 439.0717)"/></g></svg>