<svg width="30" height="30" viewBox="0 0 30 30" fill="none" xmlns="http://www.w3.org/2000/svg">
<g id="Ikona - Kultura">
<path id="Vector" d="M2.5 27.5C3.10417 25.9583 3.50521 24.3698 3.70312 22.7344C3.90104 21.099 4.02083 19.4583 4.0625 17.8125C3.25 17.5 2.57812 16.9792 2.04688 16.25C1.51562 15.5208 1.25 14.6875 1.25 13.75V11.25C3.64583 10.4583 6.08854 9.25 8.57812 7.625C11.0677 6 13.2083 4.29167 15 2.5C16.7917 4.29167 18.9323 6 21.4219 7.625C23.9115 9.25 26.3542 10.4583 28.75 11.25V13.75C28.75 14.6875 28.4844 15.5208 27.9531 16.25C27.4219 16.9792 26.75 17.5 25.9375 17.8125C25.9792 19.4583 26.099 21.099 26.2969 22.7344C26.4948 24.3698 26.8958 25.9583 27.5 27.5H2.5ZM7.375 11.25H22.625C21 10.3333 19.5365 9.39062 18.2344 8.42188C16.9323 7.45312 15.8542 6.60417 15 5.875C14.1458 6.60417 13.0677 7.45312 11.7656 8.42188C10.4635 9.39062 9 10.3333 7.375 11.25ZM18.125 15.625C18.6458 15.625 19.0885 15.4427 19.4531 15.0781C19.8177 14.7135 20 14.2708 20 13.75H16.25C16.25 14.2708 16.4323 14.7135 16.7969 15.0781C17.1615 15.4427 17.6042 15.625 18.125 15.625ZM11.875 15.625C12.3958 15.625 12.8385 15.4427 13.2031 15.0781C13.5677 14.7135 13.75 14.2708 13.75 13.75H10C10 14.2708 10.1823 14.7135 10.5469 15.0781C10.9115 15.4427 11.3542 15.625 11.875 15.625ZM5.625 15.625C6.14583 15.625 6.58854 15.4427 6.95312 15.0781C7.31771 14.7135 7.5 14.2708 7.5 13.75H3.75C3.75 14.2708 3.93229 14.7135 4.29688 15.0781C4.66146 15.4427 5.10417 15.625 5.625 15.625ZM5.8125 25H9.15625C9.34375 23.75 9.48958 22.5104 9.59375 21.2812C9.69792 20.0521 9.78125 18.8125 9.84375 17.5625C9.65625 17.4583 9.46875 17.349 9.28125 17.2344C9.09375 17.1198 8.91667 16.9792 8.75 16.8125C8.4375 17.125 8.09896 17.3802 7.73438 17.5781C7.36979 17.776 6.97917 17.9271 6.5625 18.0312C6.52083 19.2188 6.44792 20.3906 6.34375 21.5469C6.23958 22.7031 6.0625 23.8542 5.8125 25ZM11.6875 25H18.3125C18.1458 23.8542 18.0156 22.7083 17.9219 21.5625C17.8281 20.4167 17.75 19.2604 17.6875 18.0938C17.1458 18.0521 16.651 17.9219 16.2031 17.7031C15.7552 17.4844 15.3542 17.1979 15 16.8438C14.6458 17.1979 14.2344 17.4844 13.7656 17.7031C13.2969 17.9219 12.8125 18.0521 12.3125 18.0938C12.25 19.2604 12.1719 20.4167 12.0781 21.5625C11.9844 22.7083 11.8542 23.8542 11.6875 25ZM20.8438 25H24.1875C23.9375 23.8542 23.7604 22.7031 23.6562 21.5469C23.5521 20.3906 23.4792 19.2188 23.4375 18.0312C23.0208 17.9271 22.625 17.776 22.25 17.5781C21.875 17.3802 21.5417 17.125 21.25 16.8125C21.0833 16.9792 20.9062 17.1198 20.7188 17.2344C20.5312 17.349 20.3438 17.4583 20.1562 17.5625C20.2188 18.8125 20.3073 20.0521 20.4219 21.2812C20.5365 22.5104 20.6771 23.75 20.8438 25ZM24.375 15.625C24.8958 15.625 25.3385 15.4427 25.7031 15.0781C26.0677 14.7135 26.25 14.2708 26.25 13.75H22.5C22.5 14.2708 22.6823 14.7135 23.0469 15.0781C23.4115 15.4427 23.8542 15.625 24.375 15.625Z" fill="#F5F5F5"/>
</g>
</svg>
