<svg width="30" height="30" viewBox="0 0 30 30" fill="none" xmlns="http://www.w3.org/2000/svg">
<g id="Ikona - Sport">
<path id="Vector" d="M14.5588 27.3529C12.7889 27.3529 11.1257 27.0171 9.56906 26.3454C8.01244 25.6737 6.6584 24.7621 5.50693 23.6107C4.35546 22.4592 3.44388 21.1052 2.77219 19.5485C2.10049 17.9919 1.76465 16.3287 1.76465 14.5588C1.76465 12.789 2.10049 11.1257 2.77219 9.56912C3.44388 8.0125 4.35546 6.65846 5.50693 5.50699C6.6584 4.35552 8.01244 3.44394 9.56906 2.77225C11.1257 2.10056 12.7889 1.76471 14.5588 1.76471C16.3286 1.76471 17.9919 2.10056 19.5485 2.77225C21.1051 3.44394 22.4591 4.35552 23.6106 5.50699C24.7621 6.65846 25.6737 8.0125 26.3453 9.56912C27.017 11.1257 27.3529 12.789 27.3529 14.5588C27.3529 16.3287 27.017 17.9919 26.3453 19.5485C25.6737 21.1052 24.7621 22.4592 23.6106 23.6107C22.4591 24.7621 21.1051 25.6737 19.5485 26.3454C17.9919 27.0171 16.3286 27.3529 14.5588 27.3529ZM20.9558 11.3603L22.683 10.7846L23.1948 9.05736C22.5124 8.03383 21.6915 7.15423 20.7319 6.41857C19.7724 5.68291 18.7169 5.13383 17.5654 4.77133L15.8382 5.98677V7.77794L20.9558 11.3603ZM8.16171 11.3603L13.2794 7.77794V5.98677L11.5521 4.77133C10.4007 5.13383 9.34516 5.68291 8.3856 6.41857C7.42605 7.15423 6.60509 8.03383 5.92274 9.05736L6.4345 10.7846L8.16171 11.3603ZM6.81833 21.2118L8.28965 21.0838L9.24921 19.3566L7.39406 13.7912L5.60288 13.1515L4.32347 14.111C4.32347 15.4971 4.51538 16.7605 4.89921 17.9013C5.28303 19.0421 5.92274 20.1456 6.81833 21.2118ZM14.5588 24.7941C15.1132 24.7941 15.6569 24.7515 16.19 24.6662C16.7231 24.5809 17.2455 24.4529 17.7573 24.2824L18.6529 22.3632L17.8213 20.9559H11.2963L10.4646 22.3632L11.3602 24.2824C11.872 24.4529 12.3944 24.5809 12.9275 24.6662C13.4606 24.7515 14.0044 24.7941 14.5588 24.7941ZM11.6801 18.3971H17.4374L19.2286 13.2794L14.5588 10.0169L9.95288 13.2794L11.6801 18.3971ZM22.2992 21.2118C23.1948 20.1456 23.8345 19.0421 24.2183 17.9013C24.6021 16.7605 24.7941 15.4971 24.7941 14.111L23.5146 13.2154L21.7235 13.7912L19.8683 19.3566L20.8279 21.0838L22.2992 21.2118Z" fill="#F5F5F5"/>
</g>
</svg>
